<svg version="1.1" id="SVGDoc" xmlns="http://www.w3.org/2000/svg" x="0" y="0" viewBox="0 0 127 21" xml:space="preserve"><path d="M3.4.8h4.9v4.8L3.4 3.7V.8zm0 3.3L8.3 6v1.8L4 6.7l-.6-1.1V4.1zm0 2.4l2.1 3.6-2.1-.4V6.5zm0 3.4l2.2.5-2.2 1.5v-2zm0 3.1v-.9l2.3-1.6.8 2.5H3.4zm4.9 7H7.2l-3.8-2.4v-4.2h3.1l1.7 5V20zm-4.9 0v-1.8L6.3 20H3.4zM8.3 8v1.3l-2.3.8-2-3.2L8.3 8zm0 3.5L7 12.8l-.9-2.2 2.2.6v.3zm0-.7l-2.1-.5 2.1-.7v1.2zm0 6.3l-1.2-4L8.3 12v5.1zm2.4-13.6L13.8.8l5.4.1-8.5 4.4V3.5zm0 2.1L19.4 1l.9.8-2.4 4.9-.4.1V5h-1.9v2.2l-4 .9-.8-.3V5.6zm0 2.6l1.3.5-.5.4-.8-.1v-.8zM17.5 20l-6.8-6.4V9.4l1.6.4 3.3 4.7v1.2h.8l1.4 2 .5 2.2h-.8zm-3.7 0c-.5-.5-1.1-.9-1.6-1.4l-1.5-1.5V14l6.4 6h-3.3zm1.7-12.5v2.3l-4-1.5 4-.8zm-3.2 1.4l3.2 1.2v.1l-3.7-.9.5-.4zm3.2 5.2l-3-4.4 3 .7v3.7zm1.2 1.6h.8v-.4l.5 2.3-1.3-1.9zm.7-8.1v-.5l.5-.1-.3.7h-.2zm4.9 9.6L18.8 20l-1.4-6.1V13h2.5l2.4 1.7v2.5zm0-12.6v3.1h-4.1l1.9-3.8 2.2.7zm0-1.1v.6l-2-.7.5-1.1 1.5 1.2zm0 9.5v1l-1.5-1h1.5zm2.4-7.3l3.1-5H29c-.1.7-.3 1.7-.4 3.1l-.2 3.6-2.5 3.9-1.1.4v-6zm0-4.9h2.7L24.7 5V.8zm0 12.7v-1.3l4.3-1.7-2.2 3.7-2.1-.7zm0 .4l1.8.7-1.8 3v-3.7zm0 6.1v-1.2l.5-.8 5.6 2h-6.1zm7.3 0l-6.6-2.4 1.1-1.9 3-.7v.7h2.1l1.8 4.3H32zM28.5 8l.5 2.3-3 1.2L28.5 8zm1.1 4v2.7l-3.1.7 2.8-4.7.7 1.3h-.4zm.4-7h-.4v3h2.1l-2.2 2-.6-2.6.1-3.1 1 .7zm4-2.7V5h-3.5L29 3.8l.3-2.4 4.7.9zm0-1.5v1L29.4 1V.8H34zM33.3 12h-2.9l-.7-1.4 3.6.3V12zm0-4v2.4l-3.6-.2L32.2 8h1.1zm-.4 7.7l-.4.7-.3-.7h.7zm1.1 0v.6l-1 1.3-.4-.8.6-1h.8zm0 4.3l-.8-2 .8-1.1V20z" fill="#62c5ea"/><path d="M47.8 5H45v-.2l2-4.1h.5l1.7 6.8-1.3 2.7V5zM45 .8h1.5L45 3.9V.8zM47.8 11l1.6-3.4.6 2.6-2.2 1.1V11zm0 2.4v-1.7l2.2-1.1-.2 2.7-2 .1zm0 6.6v-6.3l1.8-.1-.5 6.4h-1.3zM50 .8l-1.5.9-.3-.9H50zm.6 0H53l-.9 3.1-3.3-.3-.3-1.4L50.6.8zM52 4.2l-1.8 5.7-1.5-6.1 3.3.4zM49.5 20l.3-3.4 1.1.7.3 2.7h-1.7zm.3-3.8l.4-4.9.7 5.7-1.1-.8zm2.9-4.4l-1.8 2.5-.3-3.8 2.2-.1v1.4zm0-4v2.5h-2.2l1-3.2 1.2.7zm0 12.2h-1l-.6-5.4 1.6-2.2V20zM54.4.8l1.2 2.1V5h-2.8v2.4l-.9-.6 1.9-6h.6zm1.1 0v1.1L54.9.8h.6zm2 0h4.9v4.8l-4.9-1.9V.8zm0 3.3L62.4 6v1.8l-4.2-1.1-.6-1.1V4.1zm0 2.4l2.1 3.6-2.1-.5V6.5zm0 3.4l2.2.5-2.2 1.5v-2zm0 3.1v-.9l2.3-1.6.8 2.5h-3.1zm4.9 7h-1.1l-3.8-2.4v-4.2h3.1l1.7 5V20zm-4.9 0v-1.8l2.9 1.8h-2.9zm4.9-12v1.3l-2.4.8-1.9-3.2L62.4 8zm0 3.5l-1.3 1.3-.9-2.2 2.2.6v.3zm0-.7l-2.1-.5 2.1-.7v1.2zm0 6.3l-1.2-4 1.2-1.1v5.1zm2.5-14L68.4.8h.8l2.1 4.1L68 8.7l-3.1-.9V3.1zm0-2.3h2.5l-2.5 1.7V.8zm0 7.8l.4.1 3.2 3.6-3.6 2.2V8.6zM69.5 20h-3.2l-1.4-1.9v-2.5l4.6-2.9V20zm-4.6 0v-1l.8 1h-.8zm.9-11.3l6.3 1.7-2 1.2-.7-1.2V12l-.4.3-3.2-3.6zm5.7-3.4l.9 1.7v3.1l-4-1.1 3.1-3.7zm-1.2 6.6l2-1.2-.7 3.7-1.3-2.5zm2.2 3.9l-.6-1 .7-4.1 2.4.5-2.5 4.6zm1.2-10.9L77.2 8l-4.6 2V6.8l1.1-1.9zm2.3 6.2l-.6-.1v-.5l-.3.4-2.4-.5L77.9 8 76 11.1zM75.8.8h2.8L80 1.9v4.6l-2.6 1.1L74 4.4 75.8.8zm-.4 12.4v-2l2.1.5-2.1 1.5zm4.7 2.7l-4.7 3v-5.2l2.3-1.6 2.4.5v3.3zm0 4.1h-4.7v-.6l4.7-3V20zm0-8.1l-3.6-.9 1.9-3 1.7-.8v4.7zm0-11.1v.5l-.7-.5h.7zm2.4 4.9l3.1-5h1.1c-.1.7-.3 1.7-.4 3.1l-.2 3.6-2.5 3.9-1.1.4v-6zm0-4.9h2.7L82.5 5V.8zm0 12.7v-1.3l4.3-1.7-2.2 3.7-2.1-.7zm0 .4l1.8.7-1.8 3v-3.7zm0 6.1v-1.2l.5-.8 5.6 2h-6.1zm7.2 0l-6.6-2.4 1.1-1.9 3-.7v.7h2.1l1.8 4.3h-1.4zM86.3 8l.5 2.3-3 1.2L86.3 8zm1 4v2.7l-3.1.7 2.8-4.7.6 1.3h-.3zm.5-7h-.4v3h2.1l-2.2 2-.6-2.6.2-3.1.9.7zm4-2.7V5h-3.5l-1.5-1.2.3-2.4 4.7.9zm0-1.5v1L87.2 1V.8h4.6zM91.1 12h-2.9l-.7-1.4 3.6.3V12zm0-4v2.4l-3.6-.2L90 8h1.1zm-.4 7.7l-.4.7-.3-.7h.7zm1.1 0v.6l-1 1.3-.4-.8.6-1h.8zm0 4.3l-.8-2 .8-1.1V20z" fill="#dbdbdb"/></svg>