<?xml version="1.0" encoding="utf-8"?>
<!-- Generator: Adobe Illustrator 24.3.0, SVG Export Plug-In . SVG Version: 6.00 Build 0)  -->
<svg version="1.1" id="SVGDoc" xmlns:avocode="https://avocode.com/"
	 xmlns="http://www.w3.org/2000/svg" xmlns:xlink="http://www.w3.org/1999/xlink" x="0px" y="0px" viewBox="0 0 127 21"
	 style="enable-background:new 0 0 127 21;" xml:space="preserve">
<style type="text/css">
	.st0{fill:#62C5EA;}
	.st1{fill:#DBDBDB;}
</style>
<desc>Generated with Avocode.</desc>
<g>
	<g>
		<path class="st0" d="M3.4,0.8h4.9v4.8L3.4,3.7V0.8z M3.4,4.1L8.3,6v1.8L4,6.7L3.4,5.6V4.1z M3.4,6.5l2.1,3.6L3.4,9.7V6.5z
			 M3.4,9.9l2.2,0.5l-2.2,1.5V9.9z M3.4,13v-0.9l2.3-1.6L6.5,13H3.4z M8.3,20H7.2l-3.8-2.4v-4.2h3.1l1.7,5V20z M3.4,20v-1.8L6.3,20
			H3.4z M8.3,8v1.3l-2.3,0.8L4,6.9L8.3,8z M8.3,11.5L7,12.8l-0.9-2.2l2.2,0.6V11.5z M8.3,10.8l-2.1-0.5l2.1-0.7V10.8z M8.3,17.1
			L8.3,17.1l-1.2-4L8.3,12V17.1z"/>
		<path class="st0" d="M10.7,3.5l3.1-2.7l5.4,0.1l-8.5,4.4V3.5z M10.7,5.6L19.4,1l0.9,0.8l-2.4,4.9l-0.4,0.1V5h-1.9v2.2l-4,0.9
			l-0.8-0.3V5.6z M10.7,8.2L12,8.7l-0.5,0.4L10.7,9V8.2z M17.5,20l-6.8-6.4V9.4l1.6,0.4l3.3,4.7v1.2h0.8l1.4,2l0.5,2.2H17.5z
			 M13.8,20c-0.5-0.5-1.1-0.9-1.6-1.4c-0.6-0.6-1.1-1.1-1.5-1.5V14l6.4,6H13.8z M15.5,7.5v2.3l-4-1.5L15.5,7.5z M12.3,8.9l3.2,1.2
			v0.1l-3.7-0.9L12.3,8.9z M15.5,14.1l-3-4.4l3,0.7V14.1z M16.7,15.7h0.8v-0.4l0.5,2.3L16.7,15.7z M17.4,7.6V7.1L17.9,7l-0.3,0.7
			H17.4z M22.3,17.2L18.8,20l-1.4-6.1V13h2.5l2.4,1.7V17.2z M22.3,4.6v3.1h-4.1l1.9-3.8L22.3,4.6z M22.3,3.5v0.6l-2-0.7l0.5-1.1
			L22.3,3.5z M22.3,13v1l-1.5-1H22.3z"/>
		<path class="st0" d="M24.7,5.7l3.1-5H29c-0.1,0.7-0.3,1.7-0.4,3.1l-0.2,3.6l-2.5,3.9l-1.1,0.4V5.7z M24.7,0.8h2.7L24.7,5V0.8z
			 M24.7,13.5v-1.3l4.3-1.7l-2.2,3.7L24.7,13.5z M24.7,13.9l1.8,0.7l-1.8,3V13.9z M24.7,20v-1.2l0.5-0.8l5.6,2H24.7z M32,20
			l-6.6-2.4l1.1-1.9l3-0.7v0.7h2.1l1.8,4.3H32z M28.5,8l0.5,2.3l-3,1.2L28.5,8z M29.6,12v2.7l-3.1,0.7l2.8-4.7L30,12H29.6z M30,5
			h-0.4v3h2.1l-2.2,2l-0.6-2.6L29,4.3L30,5z M34,2.3V5h-3.5l-1.5-1.2l0.3-2.4L34,2.3z M34,0.8v1L29.4,1V0.8H34z M33.3,12h-2.9
			l-0.7-1.4l3.6,0.3V12z M33.3,8v2.4l-3.6-0.2L32.2,8H33.3z M32.9,15.7l-0.4,0.7l-0.3-0.7H32.9z M34,15.7v0.6l-1,1.3l-0.4-0.8l0.6-1
			H34z M34,20l-0.8-2l0.8-1.1V20z"/>
		<path class="st1" d="M47.8,5H45V4.8l2-4.1h0.5l1.7,6.8l-1.3,2.7V5z M45,0.8h1.5L45,3.9V0.8z M47.8,11l1.6-3.4l0.6,2.6l-2.2,1.1V11
			z M47.8,13.4v-1.7l2.2-1.1l-0.2,2.7L47.8,13.4z M47.8,20v-6.3l1.8-0.1L49.1,20H47.8z M50,0.8l-1.5,0.9l-0.3-0.9H50z M50.6,0.8H53
			l-0.9,3.1l-3.3-0.3l-0.3-1.4L50.6,0.8z M52,4.2l-1.8,5.7l-1.5-6.1L52,4.2z M49.5,20l0.3-3.4l1.1,0.7l0.3,2.7H49.5z M49.8,16.2
			l0.4-4.9h0l0.7,5.7L49.8,16.2z M52.7,11.8l-1.8,2.5l-0.3-3.8l2.2-0.1V11.8z M52.7,7.8v2.5h-2.2l1-3.2L52.7,7.8z M52.7,20h-1
			l-0.6-5.4l1.6-2.2V20z M54.4,0.8l1.2,2.1V5h-2.8v2.4l-0.9-0.6l1.9-6H54.4z M55.5,0.8v1.1l-0.6-1.1H55.5z"/>
		<path class="st1" d="M57.5,0.8h4.9v4.8l-4.9-1.9V0.8z M57.5,4.1L62.4,6v1.8l-4.2-1.1l-0.6-1.1V4.1z M57.5,6.5l2.1,3.6l-2.1-0.5
			V6.5z M57.5,9.9l2.2,0.5l-2.2,1.5V9.9z M57.5,13v-0.9l2.3-1.6l0.8,2.5H57.5z M62.4,20h-1.1l-3.8-2.4v-4.2h3.1l1.7,5V20z M57.5,20
			v-1.8l2.9,1.8H57.5z M62.4,8v1.3L60,10.1l-1.9-3.2L62.4,8z M62.4,11.5l-1.3,1.3l-0.9-2.2l2.2,0.6V11.5z M62.4,10.8l-2.1-0.5
			l2.1-0.7V10.8z M62.4,17.1L62.4,17.1l-1.2-4l1.2-1.1V17.1z"/>
		<path class="st1" d="M64.9,3.1l3.5-2.3h0.8l2.1,4.1L68,8.7l-3.1-0.9V3.1z M64.9,0.8h2.5l-2.5,1.7V0.8z M64.9,8.6l0.4,0.1l3.2,3.6
			l-3.6,2.2V8.6z M69.5,20h-3.2l-1.4-1.9v-2.5l4.6-2.9V20z M64.9,20v-1l0.8,1H64.9z M65.8,8.7l6.3,1.7l-2,1.2l-0.7-1.2V12L69,12.3
			L65.8,8.7z M71.5,5.3l0.9,1.7l0,3.1l-4-1.1L71.5,5.3z M70.3,11.9l2-1.2l-0.7,3.7L70.3,11.9z M72.5,15.8l-0.6-1l0.7-4.1l2.4,0.5
			L72.5,15.8z M73.7,4.9L77.2,8l-4.6,2V6.8L73.7,4.9z M76,11.1L75.4,11v-0.5l-0.3,0.4l-2.4-0.5L77.9,8L76,11.1z M75.8,0.8h2.8
			l1.4,1.1v4.6l-2.6,1.1L74,4.4L75.8,0.8z M75.4,13.2v-2l2.1,0.5L75.4,13.2z M80.1,15.9l-4.7,3v-5.2l2.3-1.6l2.4,0.5V15.9z M80.1,20
			h-4.7v-0.6l4.7-3V20z M80.1,11.9L76.5,11l1.9-3l1.7-0.8V11.9z M80.1,0.8v0.5l-0.7-0.5H80.1z"/>
		<path class="st1" d="M82.5,5.7l3.1-5h1.1c-0.1,0.7-0.3,1.7-0.4,3.1l-0.2,3.6l-2.5,3.9l-1.1,0.4V5.7z M82.5,0.8h2.7L82.5,5V0.8z
			 M82.5,13.5v-1.3l4.3-1.7l-2.2,3.7L82.5,13.5z M82.5,13.9l1.8,0.7l-1.8,3V13.9z M82.5,20v-1.2L83,18l5.6,2H82.5z M89.7,20
			l-6.6-2.4l1.1-1.9l3-0.7v0.7h2.1l1.8,4.3H89.7z M86.3,8l0.5,2.3l-3,1.2L86.3,8z M87.3,12v2.7l-3.1,0.7l2.8-4.7l0.6,1.3H87.3z
			 M87.8,5h-0.4v3h2.1l-2.2,2l-0.6-2.6l0.2-3.1L87.8,5z M91.8,2.3V5h-3.5l-1.5-1.2l0.3-2.4L91.8,2.3z M91.8,0.8v1L87.2,1V0.8H91.8z
			 M91.1,12h-2.9l-0.7-1.4l3.6,0.3V12z M91.1,8v2.4l-3.6-0.2L90,8H91.1z M90.7,15.7l-0.4,0.7L90,15.7H90.7z M91.8,15.7v0.6l-1,1.3
			l-0.4-0.8l0.6-1H91.8z M91.8,20L91,18l0.8-1.1V20z"/>
	</g>
</g>
</svg>
